<svg xmlns="http://www.w3.org/2000/svg" xmlns:xlink="http://www.w3.org/1999/xlink" width="272" height="193" viewBox="0 0 272 193">
  <defs>
    <linearGradient id="linear-gradient" x1="0.5" y1="0.999" x2="0.5" y2="-0.002" gradientUnits="objectBoundingBox">
      <stop offset="0" stop-color="gray" stop-opacity="0.251"/>
      <stop offset="0.54" stop-color="gray" stop-opacity="0.122"/>
      <stop offset="1" stop-color="gray" stop-opacity="0.102"/>
    </linearGradient>
    <linearGradient id="linear-gradient-2" x1="0.5" y1="1.002" x2="0.5" y2="0.002" xlink:href="#linear-gradient"/>
    <linearGradient id="linear-gradient-3" x1="0.036" y1="1" x2="0.036" y2="0" xlink:href="#linear-gradient"/>
    <clipPath id="clip-Imagem_rostering">
      <rect width="272" height="193"/>
    </clipPath>
  </defs>
  <g id="Imagem_rostering" data-name="Imagem rostering" clip-path="url(#clip-Imagem_rostering)">
    <g id="Grupo_1822" data-name="Grupo 1822" transform="translate(-651.566 -313)">
      <g id="Grupo_1820" data-name="Grupo 1820" transform="translate(12 49)">
        <g id="Grupo_1819" data-name="Grupo 1819" transform="translate(630 261)">
          <g id="undraw_following_q0cr" transform="translate(0 0)">
            <ellipse id="Elipse_494" data-name="Elipse 494" cx="38.878" cy="2.764" rx="38.878" ry="2.764" transform="translate(24.568 170.582)" fill="#707070" opacity="0.1"/>
            <rect id="Retângulo_2187" data-name="Retângulo 2187" width="204" height="135" rx="10" transform="translate(54 26)" fill="#f9f9f9"/>
            <line id="Linha_437" data-name="Linha 437" x2="171.646" transform="translate(68.448 63.435)" fill="none" stroke="#eee" stroke-linecap="round" stroke-miterlimit="10" stroke-width="1" opacity="0.7"/>
            <line id="Linha_438" data-name="Linha 438" x2="171.646" transform="translate(68.448 95.158)" fill="none" stroke="#eee" stroke-linecap="round" stroke-miterlimit="10" stroke-width="1" opacity="0.7"/>
            <line id="Linha_439" data-name="Linha 439" x2="171.646" transform="translate(68.448 126.881)" fill="none" stroke="#eee" stroke-linecap="round" stroke-miterlimit="10" stroke-width="1" opacity="0.7"/>
            <ellipse id="Elipse_499" data-name="Elipse 499" cx="1.753" cy="1.753" rx="1.753" ry="1.753" transform="translate(142.677 77.146)" fill="#fff"/>
            <path id="Caminho_1255" data-name="Caminho 1255" d="M338.246,259.362a12.373,12.373,0,0,1-6.031,10.628l-.169.1-.318.176h0l-.3.158-.047.024q-.19.095-.387.182a12.065,12.065,0,0,1-1.287.5c-.287.092-.577.176-.869.247a12.259,12.259,0,0,1-1.824.3c-.374.034-.75.053-1.132.053a12.924,12.924,0,0,1-1.361-.074h-.079c-.155-.016-.311-.037-.466-.061a12.8,12.8,0,0,1-1.464-.319l-.24-.071-.211-.066-.068-.024a12.211,12.211,0,0,1-1.264-.495h0a12.042,12.042,0,0,1-2.014-1.166l-.032-.021-.021-.016-.226-.166-.171-.132a11.572,11.572,0,0,1-.958-.835q-.426-.411-.811-.861a12.373,12.373,0,1,1,21.753-8.066Z" transform="translate(-238.339 -211.712)" fill="#eaeaea"/>
            <path id="Caminho_1256" data-name="Caminho 1256" d="M339.851,290.178h0l-.313.095a.693.693,0,0,1-.484-.161l-.1-.1a.384.384,0,0,0-.242-.134h-.026a.266.266,0,0,1-.108,0,.029.029,0,0,1-.021,0,.132.132,0,0,1-.061-.105,5.173,5.173,0,0,1-.14-.719,6.725,6.725,0,0,1,0-.79v-.627a5.842,5.842,0,0,0,.061-.711,2.66,2.66,0,0,0-.071-.753,2.1,2.1,0,0,0-.147-.395h0c-.042-.355-.092-.711-.142-1.053-.037-.263-.076-.527-.124-.79a1.171,1.171,0,0,0,.026-.132,1.277,1.277,0,0,0-.453-1.153,1.384,1.384,0,0,0-.337-.208c-.1-.042-.2-.076-.305-.111l-1.653-.527c-.155-.229-.3-.463-.445-.7a4.918,4.918,0,0,1-.348-.671,2.73,2.73,0,0,0,.682-3.594c-.026-.042-.058-.082-.087-.121h0a1.768,1.768,0,0,0-.071-.613.037.037,0,0,0,0-.016.872.872,0,0,0-.226-.44l-.055-.06a.829.829,0,0,0-.082-.087,3.073,3.073,0,0,0-.358-.308,6.118,6.118,0,0,0-1.951-1.077,2.236,2.236,0,0,0-1.006,0h0l-.053-.018-.1-.018.076.037a2.2,2.2,0,0,0-1.071.018c-.434.134-.587.49-.771.879a3.929,3.929,0,0,1-1.316,1.553c-.361.247-.79.463-.964.874a2.5,2.5,0,0,0-.016,1.24,3.446,3.446,0,0,1-1.25,2.964c-.492.395-1.148.724-1.256,1.356a2.354,2.354,0,0,0,.358,1.3,3.208,3.208,0,0,1,.066,2.791c-.045.079-.092.155-.137.229.25.305.527.6.79.874a11.949,11.949,0,0,0,.945.845l.168.134.224.166.021.018.032.021a11.857,11.857,0,0,0,1.985,1.182.131.131,0,0,1,.016-.045.181.181,0,0,0,0,.053,11.7,11.7,0,0,0,1.245.5l.066.024.208.068.237.071a12.444,12.444,0,0,0,1.443.324c.153.024.305.045.461.061h.076a12.538,12.538,0,0,0,1.343.074c.376,0,.748-.018,1.116-.053a11.666,11.666,0,0,0,1.8-.308c.071-.016.142-.037.213-.058.216-.058.429-.121.642-.192a11.8,11.8,0,0,0,1.269-.505c.129-.061.263-.121.382-.184l.047-.024.3-.161h0A.021.021,0,0,1,339.851,290.178Zm-10.549-.363a.515.515,0,0,0,0-.066,1.129,1.129,0,0,1,0-.211.326.326,0,0,1,.047-.116v.126A.714.714,0,0,1,329.3,289.815Z" transform="translate(-246.465 -231.661)" fill="url(#linear-gradient)"/>
            <path id="Caminho_1257" data-name="Caminho 1257" d="M339.252,290.8h0l-.319.095a.713.713,0,0,1-.49-.158c-.034-.029-.071-.066-.105-.1a.384.384,0,0,0-.245-.132h-.026a.264.264,0,0,1-.111,0,.029.029,0,0,1-.021,0,.142.142,0,0,1-.063-.105,5.027,5.027,0,0,1-.14-.708,6.532,6.532,0,0,1,0-.79v-.619h0a5.707,5.707,0,0,0,.061-.7,2.6,2.6,0,0,0-.071-.742,2.336,2.336,0,0,0-.15-.39h0c-.042-.35-.095-.7-.145-1.053-.037-.263-.076-.526-.126-.79a.821.821,0,0,1,.029-.129,1.243,1.243,0,0,0-.461-1.137,1.41,1.41,0,0,0-.342-.205c-.1-.042-.205-.076-.311-.111l-1.677-.526c-.155-.226-.305-.458-.45-.692a4.569,4.569,0,0,1-.353-.663,2.633,2.633,0,0,0,.692-3.546c-.026-.042-.058-.079-.087-.118h0a1.723,1.723,0,0,0-.071-.605.036.036,0,0,0,0-.016.933.933,0,0,0-.058-.184,1.079,1.079,0,0,0-.171-.25l-.058-.061a.828.828,0,0,0-.082-.084,3.1,3.1,0,0,0-.371-.287,6.062,6.062,0,0,0-1.98-1.053,2.293,2.293,0,0,0-1.019,0h0l-.053-.016-.1-.018.076.037a2.267,2.267,0,0,0-1.087.018c-.44.132-.595.482-.79.866a3.909,3.909,0,0,1-1.316,1.532,2.415,2.415,0,0,0-.977.863,2.274,2.274,0,0,0-.016,1.224A3.37,3.37,0,0,1,325,282.371c-.5.39-1.166.713-1.274,1.337a2.267,2.267,0,0,0,.363,1.279,3.111,3.111,0,0,1,.066,2.754c-.045.076-.092.153-.14.226a11.369,11.369,0,0,0,.811.861,11.577,11.577,0,0,0,.958.835l.171.132.226.166.021.016.032.021a12.047,12.047,0,0,0,2.014,1.166.134.134,0,0,1,.016-.042,1.282,1.282,0,0,1,.063-.137,1.531,1.531,0,0,0,.234-.527.515.515,0,0,0,0-.066,1.091,1.091,0,0,1,0-.208.334.334,0,0,1,.047-.113c.029-.053.071-.1.105-.155a.573.573,0,0,0,.05-.087h0c.029.039.055.079.082.121.095.145.187.29.279.437a.676.676,0,0,1,.137.337.551.551,0,0,0,0,.219c.04.092.171.168.121.263a.347.347,0,0,0,0,.311,1.467,1.467,0,0,0,.111.15l.068.024.211.066.24.071a12.8,12.8,0,0,0,1.464.319c.155.024.311.045.466.061h.079a12.9,12.9,0,0,0,1.361.074c.382,0,.758-.018,1.132-.053a12.272,12.272,0,0,0,1.824-.3c.074-.016.145-.037.219-.058.219-.058.434-.118.65-.19a12.053,12.053,0,0,0,1.287-.5q.2-.087.387-.182l.047-.024.3-.158h0Z" transform="translate(-245.866 -232.265)" fill="#604696" opacity="0.3"/>
            <path id="Caminho_1258" data-name="Caminho 1258" d="M337.246,378.394a12.313,12.313,0,0,1-1.516,5.939,11.69,11.69,0,0,1-.69,1.111,11.467,11.467,0,0,1-.808,1.053.4.4,0,0,1-.055.061c-.111.132-.229.263-.35.384l-.134.142c-.137.139-.276.263-.421.405a.482.482,0,0,1-.053.05c-.066.061-.134.124-.205.182a12.047,12.047,0,0,1-1.164.9c-.208.142-.419.279-.635.408l-.168.1-.319.176h0l-.216.113-.087.045-.047.024q-.126.063-.263.118c-.045.024-.089.042-.134.063l-.263.111c-.232.1-.469.195-.708.279h0l-.321.108h-.037a.449.449,0,0,1-.079.024l-.06.021-.179.053-.061.018-.076.021-.111.029a.411.411,0,0,1-.076.021l-.187.05h0c-.137.034-.276.066-.416.092a11.891,11.891,0,0,1-1.408.211c-.358.032-.716.05-1.082.053h-.084c-.348,0-.687-.016-1.027-.045l-.3-.029h-.126l-.419-.055-.334-.058-.084-.016c-.155-.029-.311-.061-.463-.1a.085.085,0,0,1-.037,0c-.184-.04-.366-.087-.545-.137l-.24-.071-.211-.066-.068-.024h0a12.607,12.607,0,0,1-1.253-.492h0q-.424-.195-.829-.419l-.121-.068-.179-.1-.1-.058c-.263-.163-.526-.337-.79-.526l-.032-.021-.021-.016-.226-.166-.171-.132a11.566,11.566,0,0,1-.958-.835q-.427-.411-.811-.861a12.373,12.373,0,1,1,21.758-8.072Z" transform="translate(-237.602 -299.416)" fill="#eaeaea"/>
            <path id="Caminho_1259" data-name="Caminho 1259" d="M345.494,413.586a.459.459,0,0,0-.066-.076.342.342,0,0,0-.061-.047.608.608,0,0,1-.234-.579.545.545,0,0,0,0-.068,3.581,3.581,0,0,0-.305-.777c-.066-.14-.147-.353-.218-.553-.095-.263-.171-.5-.171-.5a.273.273,0,0,0-.013-.068c-.032-.166-.118-.632-.195-1.069v-.076a10.366,10.366,0,0,0-1.029-2.056h0a.1.1,0,0,0-.039-.05c-.208-.1-.919-.505-.919-.505a1.84,1.84,0,0,0-1.372-.837h-.129a.808.808,0,0,0-.087,0,1.034,1.034,0,0,0-.137.034l-.05.016a.488.488,0,0,0-.068.029l-.016.129a2.92,2.92,0,0,1,.074-.953l.026-.09h.153a2.583,2.583,0,0,0,2.446-3.293v-.037l.076-.037c.311-.118.711.084.966-.132a.756.756,0,0,0,.192-.337,2.039,2.039,0,0,0,.14-.54.9.9,0,0,0,0-.169v-.021a.626.626,0,0,0-.134-.334c-.166-.2-.445-.247-.658-.392a1.651,1.651,0,0,1-.419-.5,1.8,1.8,0,0,0-.408-.511.6.6,0,0,0-.611-.1.719.719,0,0,1-.2.1.424.424,0,0,1-.221-.061,4.246,4.246,0,0,0-2.369-.182,3.1,3.1,0,0,0-.929.226,1.127,1.127,0,0,0-.627.7c-.066.247-.016.526-.095.761-.053.166-.161.311-.221.471a1.038,1.038,0,0,0-.058.276v.168a7.794,7.794,0,0,0,.182.961,6.681,6.681,0,0,0,.263,1.553.915.915,0,0,0,.084.168c-.076.166-.155.332-.237.49h0a1.119,1.119,0,0,0-.121-.026h-.095a.388.388,0,0,0-.095,0h0a.294.294,0,0,0-.066.029l-.026.024-.018.013a.107.107,0,0,0-.021.034.043.043,0,0,0,0,.018.324.324,0,0,0-.026.1h0v.026a.62.62,0,0,1-.016.168c-.016.058,0,.066-.013.1a.755.755,0,0,1-.013.082v.021a.428.428,0,0,1-.021.1l-.039.118-.016.034c-.016.034-.032.068-.05.1h0l-.09.092a.1.1,0,0,0-.055.1h0l-.04.032a.133.133,0,0,0-.055.021c-.018-.042-.092-.042-.321.237a4.354,4.354,0,0,1-1.053.816s-1.545,1.1-1.63,1.609-.582,2.7-.319,3.438c.034.095.1.242.187.421v.016s.076.292.2.724c.032.018.063.042.1.061l.179.1.121.071c.263.15.548.292.829.424h0a12.648,12.648,0,0,0,1.253.5h0l.068.024.211.069.24.071c.179.05.361.1.545.14a.085.085,0,0,0,.037,0c.153.039.308.071.463.1l.084.016.334.061.419.055h.126l.3.029c.34.029.679.045,1.027.045h.084c.366,0,.724-.021,1.082-.053a11.857,11.857,0,0,0,1.408-.213c.14-.026.279-.058.416-.095h0l.187-.05a.416.416,0,0,0,.076-.021l.111-.029.076-.021.061-.018.179-.053.061-.024a.451.451,0,0,0,.079-.024h.037l.321-.108h0c.24-.087.477-.182.708-.284l.263-.111c.045-.021.09-.04.134-.066a.787.787,0,0,0-.105-.161Zm-5.1-6.974h-.016V406.6h0Z" transform="translate(-253.089 -323.601)" fill="url(#linear-gradient-2)"/>
            <path id="Caminho_1260" data-name="Caminho 1260" d="M345.531,414.286a.574.574,0,0,0-.066-.074.344.344,0,0,0-.061-.047.6.6,0,0,1-.234-.571.545.545,0,0,0,0-.068,3.5,3.5,0,0,0-.305-.766c-.066-.137-.147-.347-.218-.545-.095-.263-.171-.5-.171-.5l-.013-.066c-.032-.166-.118-.624-.195-1.053v-.076a10.2,10.2,0,0,0-1.029-2.03h0a.092.092,0,0,0-.039-.047c-.208-.1-.919-.5-.919-.5a1.844,1.844,0,0,0-1.372-.827h-.129a.825.825,0,0,0-.087,0,1.035,1.035,0,0,0-.137.034l-.05.016a.5.5,0,0,0-.068.029l-.016.129a2.853,2.853,0,0,1,.074-.943.365.365,0,0,1,.026-.087h.153a2.546,2.546,0,0,0,2.546-2.546,2.5,2.5,0,0,0-.1-.706v-.034l.042-.01c.311-.116.711.084.966-.129a.745.745,0,0,0,.192-.334,1.958,1.958,0,0,0,.14-.526.881.881,0,0,0,0-.166v-.021a.619.619,0,0,0-.134-.329c-.166-.2-.445-.245-.658-.39a1.579,1.579,0,0,1-.419-.495,1.815,1.815,0,0,0-.4-.505.592.592,0,0,0-.611-.095.789.789,0,0,1-.2.095.424.424,0,0,1-.221-.061,4.27,4.27,0,0,0-2.369-.179,3.019,3.019,0,0,0-.929.224,1.117,1.117,0,0,0-.627.687c-.066.245-.016.511-.095.753-.053.163-.161.305-.221.466a.964.964,0,0,0-.058.263v.166a7.6,7.6,0,0,0,.182.948,6.575,6.575,0,0,0,.263,1.535.985.985,0,0,0,.084.166c-.076.163-.155.326-.237.482h0a1.139,1.139,0,0,0-.121-.026h-.095a.387.387,0,0,0-.095,0h0a.321.321,0,0,0-.063.026l-.026.024-.018.013a.108.108,0,0,0-.021.034.041.041,0,0,0,0,.018.306.306,0,0,0-.026.1h0v.026a.591.591,0,0,1-.016.166c-.016.055,0,.066-.013.1s0,.053-.013.079,0,.013,0,.021-.013.066-.021.1l-.039.118-.016.032a.838.838,0,0,1-.05.1h0a.281.281,0,0,1-.05.034.1.1,0,0,0-.055.1h0l-.039.032a.121.121,0,0,0-.055.018c-.018-.039-.092-.039-.321.234a4.34,4.34,0,0,1-1.053.806s-1.545,1.087-1.63,1.58-.582,2.669-.319,3.393c.034.095.1.24.187.416v.016s.076.29.2.716l.1.058.179.1.121.069q.405.226.829.419h0a12.621,12.621,0,0,0,1.253.492h0l.068.024.211.066.24.071c.179.05.361.1.545.137a.085.085,0,0,0,.037,0c.153.039.308.071.463.1l.084.016.334.058.419.055h.126l.3.029c.34.029.679.045,1.027.045h.084c.366,0,.724-.021,1.082-.053a11.855,11.855,0,0,0,1.408-.211c.139-.026.279-.058.416-.092h0l.187-.05a.415.415,0,0,0,.076-.021l.111-.029.076-.021.061-.018.179-.053.061-.021a.456.456,0,0,0,.079-.024h.037l.321-.108h0c.24-.084.477-.179.708-.279l.263-.111c.045-.021.09-.039.134-.063A.793.793,0,0,0,345.531,414.286Zm-5.1-6.882h-.016v-.016h0Z" transform="translate(-253.126 -324.286)" fill="#604696" opacity="0.3"/>
            <path id="Caminho_1261" data-name="Caminho 1261" d="M338.246,496.24a12.313,12.313,0,0,1-1.516,5.939,11.665,11.665,0,0,1-.69,1.111,11.478,11.478,0,0,1-.808,1.053.4.4,0,0,1-.055.061c-.111.132-.229.263-.35.384l-.134.142c-.137.14-.276.263-.421.405a.474.474,0,0,1-.053.05c-.066.061-.134.124-.205.182a12.061,12.061,0,0,1-1.164.9c-.208.142-.419.279-.634.408l-.169.1-.319.176h0l-.155.082h-.018l-.042.024-.087.045-.047.024-.263.118-.134.063-.263.111-.374.155h0l-.2.074-.134.05h0l-.321.108h-.037l-.079.024-.061.021-.179.053-.061.018H329.2l-.111.029a.413.413,0,0,1-.076.021l-.187.05h0c-.137.034-.276.066-.416.092-.226.047-.455.089-.684.124s-.482.066-.724.087c-.358.032-.716.05-1.082.053h-.084c-.348,0-.687-.016-1.027-.045l-.3-.029h-.126a2.484,2.484,0,0,1-.379-.05h-.039l-.334-.058-.084-.016c-.155-.029-.311-.061-.463-.1a.085.085,0,0,1-.037,0c-.184-.039-.366-.087-.545-.137l-.24-.071-.211-.066-.068-.024h0l-.192-.066-.134-.047h0c-.1-.034-.192-.071-.287-.111h0l-.1-.04h0l-.124-.05q-.205-.084-.4-.174h0q-.424-.192-.829-.419l-.121-.068-.179-.1-.1-.058a4.461,4.461,0,0,1-.392-.263h0c-.132-.087-.263-.174-.384-.263l-.032-.021-.021-.016-.226-.166-.171-.132a11.577,11.577,0,0,1-.958-.835q-.426-.411-.811-.861a12.373,12.373,0,1,1,21.727-8.053Z" transform="translate(-238.339 -386.197)" fill="#eaeaea"/>
            <g id="Grupo_1818" data-name="Grupo 1818" transform="translate(80.676 105.872)" opacity="0.3">
              <path id="Caminho_1262" data-name="Caminho 1262" d="M345.29,463.153l.008,0-.008,0Z" transform="translate(-335.065 -447.082)" fill="#604696"/>
              <path id="Caminho_1263" data-name="Caminho 1263" d="M346.652,529.683a.153.153,0,0,1-.076-.053h0a.436.436,0,0,1,.229-.132c.082-.021.126-.142.116-.263h0a.445.445,0,0,0-.1-.329.232.232,0,0,1-.055-.092h0a2.3,2.3,0,0,1,.155-.284.09.09,0,0,0,0-.09c.074-.182-.263-.147-.263-.147v-1.73s-.026-.139-.063-.405-.09-.656-.139-1.153c-.1-.992-.492-1.1-.492-1.1a4.452,4.452,0,0,1-.611-.24,4.184,4.184,0,0,0-.642-.24,3.3,3.3,0,0,1-.832-.116,2.546,2.546,0,0,0-.566-.121l-.061-.032a2.193,2.193,0,0,1-1.016-1.053h0a2.128,2.128,0,0,0,.226-.305h0v.2h0c.263-.474,1.053-.582,1.129-1.122v-.018a.62.62,0,0,0,0-.139h0a.6.6,0,0,0,0-.069h0V520.6a4.126,4.126,0,0,0-.068-.408v-.026a.937.937,0,0,1,.021-.118.232.232,0,0,1,0-.037,1.091,1.091,0,0,1,.039-.132h0c.111-.3.316-.576.426-.882a1.469,1.469,0,0,0,.055-.211v-.029a1.807,1.807,0,0,0,.021-.208V518.4a.034.034,0,0,0,0-.018.09.09,0,0,0,0-.026.706.706,0,0,0,0-.074,1.6,1.6,0,0,0-.527-1.158c-.263-.234-.627-.382-.813-.687-.087-.145-.129-.311-.226-.45a1.129,1.129,0,0,0-.819-.4,4.565,4.565,0,0,1-.929-.124c-.213-.068-.4-.192-.616-.263a1.179,1.179,0,0,0-1.269.455,2.126,2.126,0,0,1-.337.49c-.311.263-.837.15-1.111.453a.755.755,0,0,0-.147.576v.04h0v.105a.131.131,0,0,1,0,.032.669.669,0,0,0,0,.1v.108a1.714,1.714,0,0,0,.026.2,3.081,3.081,0,0,1,.026.347v.053a3.6,3.6,0,0,1-.392,1.522,4.652,4.652,0,0,0-.7,1.53,1.271,1.271,0,0,0,0,.245v-.024a.352.352,0,0,0,0,.053v.3l.024.126a.625.625,0,0,0,0,.068l.04.163v.029c.074.263.171.548.229.824a2.659,2.659,0,0,1,.047.284.076.076,0,0,0,0,.024c0,.079.013.161.016.24h0v.021h0v.042a3.106,3.106,0,0,1-.395.121c-.237.034-.932.65-.882.8a.218.218,0,0,1,0,.066.237.237,0,0,1,0,.042h0a10.151,10.151,0,0,1-.321,1.145h0l-.558,3.846h0c.129.087.263.169.392.263l.1.058.179.1.121.068q.405.224.829.419h0q.2.092.4.174l.124.05h0l.1.04h0a.431.431,0,0,0,.158.1h.113a.268.268,0,0,0,.079,0h.042l.134.047.192.066h0l.068.024.211.066.24.071c.179.05.361.1.545.137a.083.083,0,0,0,.037,0c.153.04.308.071.463.1l.084.016.334.058h.039c.126.018.263.037.379.05h.126l.3.029c.34.029.679.045,1.027.045h.084c.366,0,.724-.021,1.082-.053.242-.021.484-.05.724-.087s.458-.076.685-.124c.139-.026.279-.058.416-.092h0l.187-.05a.413.413,0,0,0,.076-.021l.111-.029h.032c0-.179-.021-.332-.026-.45.039.053.079.1.105.132a.132.132,0,0,1,.029.058h0a1.083,1.083,0,0,0-.1.263h.024l.061-.018.179-.053.061-.021.079-.024h.037l.321-.108h0l.134-.05.2-.074h0l.374-.155.263-.11.134-.063.263-.118.047-.024.087-.045.042-.024h.018a1.14,1.14,0,0,0,0-.184h0v-.029h0v-.066C347.01,529.922,346.873,529.767,346.652,529.683Zm-9.978-6.131Z" transform="translate(-334.45 -515.155)" fill="#604696"/>
              <path id="Caminho_1264" data-name="Caminho 1264" d="M336.277,574.571l-.047-.021A.161.161,0,0,0,336.277,574.571Z" transform="translate(-335.761 -558.914)" fill="#604696"/>
            </g>
            <path id="Caminho_1265" data-name="Caminho 1265" d="M338.246,615.23a12.312,12.312,0,0,1-1.516,5.939,11.657,11.657,0,0,1-.69,1.111,11.488,11.488,0,0,1-.808,1.053.236.236,0,0,1-.05.053h0c-.111.132-.229.263-.35.384l-.037.039-.1.1c-.137.139-.276.263-.421.405a.486.486,0,0,1-.053.05c-.066.06-.134.124-.205.182a9.586,9.586,0,0,1-.858.687l-.053.037-.108.076c-.047.037-.095.068-.145.1-.208.142-.419.279-.634.408l-.095.058-.074.042-.319.176h0l-.155.082h-.018l-.042.024-.087.045-.047.024-.263.118-.134.063-.263.111-.374.155h0l-.2.074-.134.05h0l-.053.019-.263.089h-.037l-.079.024-.061.021-.071.021-.108.032-.061.018h-.076l-.111.029a.414.414,0,0,1-.076.021l-.187.05h0c-.137.034-.276.066-.416.092-.226.047-.455.089-.684.124q-.205.032-.411.055h-.05l-.263.026c-.358.032-.716.05-1.082.053h-.3c-.263,0-.542-.018-.811-.042h-.079l-.221-.021h-.126l-.263-.032-.126-.018h-.039l-.334-.058-.084-.016-.221-.042-.092-.021-.15-.037a.085.085,0,0,1-.037,0c-.184-.04-.366-.087-.545-.137l-.095-.029h-.034l-.111-.032-.1-.031-.108-.034-.068-.024h0l-.192-.066-.134-.047h0l-.124-.055-.161-.063h0l-.1-.04h0l-.124-.05q-.205-.084-.4-.174h0c-.208-.095-.413-.195-.613-.305-.074-.034-.145-.074-.216-.113l-.055-.032h0L319.8,626l-.179-.1-.1-.058a4.444,4.444,0,0,1-.392-.263h0c-.132-.087-.263-.174-.384-.263l-.032-.021-.021-.016-.108-.079-.118-.087-.021-.016c-.05-.04-.1-.076-.15-.116a11.6,11.6,0,0,1-.958-.835q-.426-.411-.811-.861a12.373,12.373,0,1,1,21.722-8.056Z" transform="translate(-238.339 -473.86)" fill="#eaeaea"/>
            <path id="Caminho_1266" data-name="Caminho 1266" d="M347.221,646.821a.408.408,0,0,0-.548-.179l-3.6,1.843a.426.426,0,0,0-.045-.139h0a.329.329,0,0,0-.147-.263.245.245,0,0,1-.079-.076h0a.775.775,0,0,1,0-.082h0a.237.237,0,0,0-.042-.187.463.463,0,0,0-.2-.337h-.013v-.092a.367.367,0,0,0-.05-.166h0c-.013-.171-.137-.329-.384-.563a.878.878,0,0,1-.2-.353v-.016c-.045-.171-.089-.363-.153-.558a3.14,3.14,0,0,0-.105-.326c-.195-.5-.408-.437-.495-.526s-.653-.2-.943-.353a3.1,3.1,0,0,0-1.3.058v-.05a2.438,2.438,0,0,0,1.685-2.838l-.016-.061a.983.983,0,0,0,.374-.074.489.489,0,0,0,.171-.316,1.579,1.579,0,0,0,.047-.706c0-.024-.021-.047-.029-.071a.406.406,0,0,0-.018-.061h0a.266.266,0,0,0,0-.063,1.015,1.015,0,0,0-.082-.216.037.037,0,0,1,0,.018,7.569,7.569,0,0,0-.605-.813c-.211-.316-.332-.716-.65-.927a1.316,1.316,0,0,0-1.087-.055,3.1,3.1,0,0,1-.511.132,5.39,5.39,0,0,1-.871-.053,1.877,1.877,0,0,0-1.158.308.651.651,0,0,0-.19.19.99.99,0,0,0-.084.342,1.666,1.666,0,0,1-.226.624c-.09.153-.2.287-.284.442a.679.679,0,0,0-.076.508c.029.089.082.169.1.263a.961.961,0,0,1-.184.6,1.143,1.143,0,0,0-.126.571.737.737,0,0,0,.161.413h0a.585.585,0,0,0,.053.108l.013.018a.752.752,0,0,0,.053.074l.026.026.053.053a.884.884,0,0,0,.513.161h0a.848.848,0,0,0,.045.084v.047a.261.261,0,0,0,0,.045,1.31,1.31,0,0,0-.711.292,1.024,1.024,0,0,1-.624.263s-.513.171-.5.216-.15.105-.474.192a2.088,2.088,0,0,0-.856.471c0,.076-.848.908-.848,1a2.106,2.106,0,0,0-.226.971,3.475,3.475,0,0,1-.063,1.4c-.129.119,0,.577,0,.577a.321.321,0,0,1,0,.342,2.907,2.907,0,0,0,.021,1v.835a1.929,1.929,0,0,1,.047.363l.021.016.118.087.108.079.021.016.032.021c.126.09.263.176.384.263h0c.129.087.263.168.392.263l.1.058.179.1.063.034h0l.055.032c.071.04.142.079.216.113.2.11.405.211.613.305h0q.2.092.4.174l.124.05h0l.1.039h0l.161.063.126.047h0l.134.047.192.066h0l.068.024.108.034.1.032.111.032h.034l.095.029c.179.05.361.1.545.137a.085.085,0,0,0,.037,0l.15.037.092.021.221.042.084.016.334.058h.04l.126.018.263.032h.126l.221.021h.079c.263.024.527.037.811.042h.3c.366,0,.724-.021,1.082-.053l.263-.026h.05q.205-.024.411-.055c.229-.034.458-.076.684-.124.14-.026.279-.058.416-.092h0l.187-.05a.419.419,0,0,0,.076-.021l.111-.029h.076l.061-.018.108-.032.071-.021.061-.021.079-.024h.037l.263-.09.053-.018h0l.134-.05.2-.074h0l.374-.155.263-.111.134-.063.263-.118.047-.024.087-.045.042-.024h.018l.155-.082h0l.319-.176.074-.042.095-.058c.216-.129.426-.263.634-.408.05-.034.1-.066.145-.1h.053l.055-.082.053-.037c.3-.216.584-.445.858-.687.071-.058.14-.121.205-.182a.461.461,0,0,0,.053-.05c.145-.132.284-.263.421-.405l.1-.1.037-.04c.121-.124.24-.263.35-.384h0Zm-6,4.128-.066.016a.112.112,0,0,1,.021-.055s-.4.016-.811.047a.6.6,0,0,1,.021-.2,4.824,4.824,0,0,0,.2-.887h0l.7,1.069Zm.134,2.032a.919.919,0,0,0,0-.105c.024-.016.04-.029.042-.039a2.676,2.676,0,0,0-.039-.35h.063l.74-.116a1.35,1.35,0,0,0,.263-.037l.061.118a3.808,3.808,0,0,0-.948.424.36.36,0,0,1-.176.105Z" transform="translate(-251.713 -499.922)" fill="#604696" opacity="0.3"/>
            <path id="Caminho_1303" data-name="Caminho 1303" d="M989.622,622.041c-.24.219-.471.445-.706.671l-1.316,1.266" transform="translate(-734.975 -486.088)" fill="#407d3b" opacity="0.3"/>
            <path id="Caminho_1305" data-name="Caminho 1305" d="M979.05,627.12a8,8,0,0,1,1.43,1.69c.074.119.147.237.219.358l.4.671" transform="translate(-728.676 -491.772)" fill="#407d3b" opacity="0.3"/>
            <path id="Caminho_1338" data-name="Caminho 1338" d="M189.912,471a7.759,7.759,0,0,1,.916,2.593,12.687,12.687,0,0,0,1.69,2.225,9.337,9.337,0,0,1,.821,1.366l1.245,2.317a12.4,12.4,0,0,0,2.227-1l.448.05a8.942,8.942,0,0,0,1.027-.158c0,.058-.016.116-.021.171-.213,1.73-.371,3.159-.371,3.159s.421,1.53,1.008,1.053l.032-.026c.016.074.032.158.047.263a16.75,16.75,0,0,1,.3,3.6,27.76,27.76,0,0,0,.263,4.494s.816-.068,2.019-.142c.032.087.066.176.1.263h0c.116.3.245.634.379.966l.024.061c.018.042.034.087.053.129l.034.087.047.113.055.132.034.087.074.176a.562.562,0,0,1,.026.058c.021.047.039.1.061.145l.026.055.063.145.018.042c.084.19.166.363.242.511v.018l.066.124v.018l.066.116h0c.021.039.045.074.063.105a9.936,9.936,0,0,1,.916,2.269l.492,2.988s.1.724.147,1.374c.016.237.024.463.018.642,0,.05,0,.153.013.3a.479.479,0,0,1,0,.063h0c.045.542.158,1.58.3,2.788.029.245.058.495.09.75h0a33.249,33.249,0,0,0,.082,4.528s-.353,5.629-.263,6.16a4.371,4.371,0,0,1-.434,1.58l-.071-.063a4.652,4.652,0,0,0-1.232,2.833c.024,1.516.142,3.567.142,3.567s.116.832-.142,1.053,0,1.39,0,1.39,2.206,2.022,4.059-.169a5.7,5.7,0,0,0,.213-2.059c-.013-.066-.026-.15-.042-.263a24.142,24.142,0,0,0-.211-2.617l-.216-1.58c.232-.024.584-1.274.421-1.58a4.368,4.368,0,0,1,.142-1.58l.553-1.709h0c.024.055.047.111.071.171v.024a.617.617,0,0,1,.029.074v.024l.1.263h0l.032.092v.018c.034.095.066.192.095.29h0l.026.089v.021c.026.095.05.184.068.263v.018l.016.076v.105a.074.074,0,0,1,0,.024,1.026,1.026,0,0,1,0,.124.161.161,0,0,1,0,.037v.219a3.973,3.973,0,0,0,.169,1.806v.026a.2.2,0,0,0,.029.074.229.229,0,0,0,.018.045q.019.048.042.095h0a1.14,1.14,0,0,0,.1.166h0l-.071,6.055a2.888,2.888,0,0,0,2.864,1.053,1.94,1.94,0,0,0,1.432-2.8,6.079,6.079,0,0,1-.421-1.874s-.353-2.5-.587-3.407a1.077,1.077,0,0,0-.548-.79c-.09-.284-.216-.548-.226-.587a7.373,7.373,0,0,1-.511-1.211.95.95,0,0,1-.032-.434,1.422,1.422,0,0,0,0-.284h0v-.255h0c-.061-1.516-.416-5.7-.608-7.877h0a20.461,20.461,0,0,0,.466-3.02,28.089,28.089,0,0,1,.187-3.451,18.845,18.845,0,0,1,.892-4.054,37.712,37.712,0,0,0,1.427-4.623c.026-.1.05-.192.074-.284a3.238,3.238,0,0,0,1.269-.3s-.305-2.688.445-4.078c.527-.953.877-5.176.887-7.95v-.4c.624.527,1.053,1.243,1.206,1.172a34.146,34.146,0,0,0,4.4-2.719c1.711-1.39-3.075-9.2-3.615-9.8s-1.651-7.55-1.651-7.55a1.364,1.364,0,0,0,.658.463,5.854,5.854,0,0,1,1.738,1.164c.729.608,4.059,0,4.059,0a2.638,2.638,0,0,0,2.864-1.945,19.156,19.156,0,0,0,1.245-3.775,31.114,31.114,0,0,1,1.843-5,3.894,3.894,0,0,0-1.616-1.453,1.425,1.425,0,0,1,.584-.908c.75-.326,9.106-3.422,6.147-4.475s-7.511,2.369-7.511,2.369-.234.079-.608.842c-.2.4-.453,1.087-.653,1.645-.021.058-.042.116-.061.171l-.132.013a16.186,16.186,0,0,0-1.079,2.9,18.991,18.991,0,0,1-1.316,3.22s-.656.674-.421,1.206-.529.411-.529.411l-1.035-.811a6.242,6.242,0,0,0-1.316-.671,3.667,3.667,0,0,1-1.15-.856s-.845-.558-.774-.65-.469-.526-.774-.671-.448-.44-.75-1-.777-.14-1.011-.232a25.547,25.547,0,0,0-3.449.347,3.035,3.035,0,0,1-1.88-.279,1.411,1.411,0,0,0-1.187-.132,6.263,6.263,0,0,1-.276-.716,1.084,1.084,0,0,1-.034-.126,5.049,5.049,0,0,0,3.054-4.623,4.981,4.981,0,0,0-1.25-3.309c-.071-.079-.145-.158-.221-.234h0c.284-.137.7-.434.7-.771a.487.487,0,0,0-.137-.348c-.105-.118-.263-.179-.374-.295a.65.65,0,0,1-.153-.466c0-.213.055-.442.058-.663a.959.959,0,0,0-.026-.263,1.016,1.016,0,0,0-.864-.677.065.065,0,0,0,0,.018,1.639,1.639,0,0,0-.466-.021c-.542.058-1.053.3-1.58.363a6.954,6.954,0,0,1-2.472-.479,2.375,2.375,0,0,0-2.369.4c-.558.621-.527,1.674-1.227,2.122a7.905,7.905,0,0,1-1.085.387,2.233,2.233,0,0,0-.919.863,4.475,4.475,0,0,0-.692,2.9c.058.548.219,1.082.284,1.63a4.738,4.738,0,0,1-.113,1.709,1.8,1.8,0,0,1-1.053,1.364,1.788,1.788,0,0,0-.39.132c-.332.2-.287.684-.2,1.053l.347,1.545c-.329.247-.837.142-1.156.4a.956.956,0,0,0-.263.419,2.264,2.264,0,0,0,.527,2.348.377.377,0,0,1-.029.087c-.008.029-.037.132-.053.2-.282,1.345-.187,1.506-.376,1.737h0a15.987,15.987,0,0,1-1.148,1.732,1.869,1.869,0,0,0-.424,1.114,14.751,14.751,0,0,1-1.843,2.293c-.434.232-1.127,1.806-1.127,1.806s-1.1.719-1.1,1.53a13.349,13.349,0,0,1-.211,2.014A5.62,5.62,0,0,0,189.912,471Zm4.033-1.25c.211-.326,0-.95,0-.95a10.08,10.08,0,0,0,1.58-2.851,3.092,3.092,0,0,1,1.456-1.735h0s.658-.263.7,0,.166.808.166.808-.118,1.345.376,1.877.569,2.78.569,2.78.79,2.225.416,2.92a18.035,18.035,0,0,0-.542,2.914c-.184-.029-.358-.05-.527-.063a7.247,7.247,0,0,0-1.6-1.185c-.542-.184-1.053-1.714-1.082-2.061s-.492-1.506-.985-1.714S193.74,470.071,193.946,469.748Z" transform="translate(-146.822 -353.028)" fill="url(#linear-gradient-3)"/>
            <path id="Caminho_1339" data-name="Caminho 1339" d="M327.384,478.9a3.786,3.786,0,0,0-3.794-1.78v2.706h1.643l1.3-.334Z" transform="translate(-245.773 -381.234)" fill="#4c4981"/>
            <path id="Caminho_1340" data-name="Caminho 1340" d="M327.384,478.9a3.786,3.786,0,0,0-3.794-1.78v2.706h1.643l1.3-.334Z" transform="translate(-245.773 -381.234)" opacity="0.1"/>
            <path id="Caminho_1341" data-name="Caminho 1341" d="M323.17,463.265l2.011,1.411s.018-.284.068-.669c.1-.729.326-1.824.811-2.038.74-.324,8.972-3.422,6.055-4.462s-7.4,2.369-7.4,2.369-.232.079-.6.842c-.195.4-.448,1.085-.642,1.64C323.3,462.865,323.17,463.265,323.17,463.265Z" transform="translate(-245.463 -366.667)" fill="#ae6e79"/>
            <path id="Caminho_1342" data-name="Caminho 1342" d="M231.624,374.838l-.229-.108-.645.735.527,1.121.9-.358-.208-.9Z" transform="translate(-170.003 -276.068)" fill="#4c4981"/>
            <path id="Caminho_1343" data-name="Caminho 1343" d="M266.847,737.606s.579-.071.811.832.577,3.4.577,3.4a6.172,6.172,0,0,0,.416,1.872,1.941,1.941,0,0,1-1.411,2.8,2.839,2.839,0,0,1-2.82-1.053l.068-6.055Z" transform="translate(-202.18 -573.171)" fill="#444053"/>
            <path id="Caminho_1344" data-name="Caminho 1344" d="M243.889,738.64a4.675,4.675,0,0,0-1.214,2.827c.024,1.511.14,3.559.14,3.559s.113.832-.14,1.053,0,1.387,0,1.387,2.175,2.019,4-.171a5.708,5.708,0,0,0,.208-2.053c-.15-.806-.553-4.433-.553-4.433Z" transform="translate(-186.077 -573.934)" fill="#444053"/>
            <path id="Caminho_1345" data-name="Caminho 1345" d="M236,630.1a39.043,39.043,0,0,0,1.782,4.3,9.346,9.346,0,0,1,.9,2.264l.476,2.983a16.606,16.606,0,0,1,.161,2.014c-.024.669,1.2,10.449,1.2,10.449l1.943,2.475a6.325,6.325,0,0,1,.716,2.451,3.64,3.64,0,0,0,.369,2.219s.047,2.267.116,2.775-.263,1.943,0,2.2,3.654.14,3.746-.263a12.587,12.587,0,0,0-.416-2.427l-.3-1.943s-.6-1.053-.463-1.411-.263-1.156-.276-1.224-.648-1.2-.527-1.643-.719-9.756-.719-9.756l-2.369-16.717Z" transform="translate(-181.242 -493.04)" fill="#ae6e79"/>
            <path id="Caminho_1346" data-name="Caminho 1346" d="M236,630.1s.19.526.45,1.216a23.748,23.748,0,0,0,1.332,3.085,9.546,9.546,0,0,1,.9,2.264l.476,2.983a16.6,16.6,0,0,1,.161,2.011c0,.263.176,1.953.405,3.9.35,2.975.79,6.553.79,6.553l1.943,2.475s.1.2.221.487a4.571,4.571,0,0,1,.495,1.964,3.639,3.639,0,0,0,.369,2.219s.047,2.267.116,2.775-.263,1.94,0,2.2,3.654.139,3.746-.263a12.585,12.585,0,0,0-.416-2.427l-.3-1.943s-.6-1.053-.463-1.411-.263-1.156-.276-1.224-.648-1.2-.527-1.643c.087-.334-.374-5.813-.6-8.409-.071-.816-.118-1.348-.118-1.348l-2.051-14.379-.163-1.161-.168-1.177Z" transform="translate(-181.242 -493.04)" opacity="0.1"/>
            <path id="Caminho_1347" data-name="Caminho 1347" d="M243.87,667.951c-.024.263,3.259.624,3.728.347s0-3.723,0-3.723l-.213-1.58c.229-.024.577-1.272.416-1.58a4.431,4.431,0,0,1,.139-1.58l.545-1.706.332-1.053a48.716,48.716,0,0,0,1.809-7.137,20.647,20.647,0,0,0,.458-3.012,28.589,28.589,0,0,1,.184-3.446,19.031,19.031,0,0,1,.879-4.046,38.271,38.271,0,0,0,1.406-4.615c.208-.79.353-1.374.353-1.374s-3.5-.292-5.613-.395c-.977-.047-1.661-.053-1.58.026a2.868,2.868,0,0,1,.095,1.116,28.571,28.571,0,0,1-.463,5.126,17.821,17.821,0,0,0-.511,4.462,14.212,14.212,0,0,1,.095,2.311,10.266,10.266,0,0,0-.405,2.511,33.807,33.807,0,0,0,.079,4.518s-.345,5.621-.263,6.15-.74,2.2-.74,2.522-.232,2.519-.232,2.519S243.9,667.7,243.87,667.951Z" transform="translate(-187.04 -496.118)" fill="#ae6e79"/>
            <path id="Caminho_1348" data-name="Caminho 1348" d="M236.93,481.786l.4.426.263.279,1.514,1.627,3.9.44,2.075-.555.527-.137s0-1.053-.095-2.3c-.132-1.606-.448-3.554-1.2-4.086a2.985,2.985,0,0,1-.882-1.114,6.324,6.324,0,0,1-.376-.935c-.016-.042-.026-.082-.039-.121a10.425,10.425,0,0,1-.369-1.714s-.5-.263-1.19-.6c-1.811-.842-4.936-2.011-3.849.6a9.677,9.677,0,0,1,.408,1.172c.016.058.032.116.045.174a3.783,3.783,0,0,1-.147,2.817h0a1.936,1.936,0,0,1-.155.242,1.28,1.28,0,0,1-.263.263l-.45,2.856-.037.237Z" transform="translate(-181.927 -377.488)" fill="#ae6e79"/>
            <path id="Caminho_1349" data-name="Caminho 1349" d="M238.851,474.12c.205.495-.1-.4,0,0,.824.587,2.767,2.256,3.857,2.256a2.979,2.979,0,0,0,1.58-.419,10.365,10.365,0,0,1-.408-1.843S237.348,470.514,238.851,474.12Z" transform="translate(-183.177 -377.87)" opacity="0.1"/>
            <path id="Caminho_1350" data-name="Caminho 1350" d="M233.17,452.932a5.036,5.036,0,0,0,4.512,5,4.958,4.958,0,0,0,.527.029,5.041,5.041,0,1,0-5.039-5.041Z" transform="translate(-179.157 -359.719)" fill="#ae6e79"/>
            <path id="Caminho_1351" data-name="Caminho 1351" d="M230.43,517.078l.716,1.872s.587.026,1.5.055c3.075.1,9.854.221,10.157-.563a1.951,1.951,0,0,0,.105-.624,12.136,12.136,0,0,0-.527-3.054s-.324-3.686-.324-3.859.282-2.777.282-2.777l-.553-2.08-1.551-1.079s-.7,1.066-1.111,1.156a2.928,2.928,0,0,0-.969.6s-1.364.832-1.8.369-3.862-2.5-3.862-2.5l-1.8,1.988Z" transform="translate(-177.138 -401.507)" opacity="0.1"/>
            <path id="Caminho_1352" data-name="Caminho 1352" d="M230.43,518.152l.716,1.874s.587.026,1.5.053h.09c.392,0,.842.026,1.316.037a57.739,57.739,0,0,0,7.571-.187c.661-.095,1.093-.229,1.166-.416a1.412,1.412,0,0,0,.082-.345,2.3,2.3,0,0,0,.024-.263,12.11,12.11,0,0,0-.526-3.054s-.324-3.7-.324-3.862.276-2.751.276-2.751l-.553-2.082-1.066-.745-.484-.34a6.951,6.951,0,0,1-.527.7,1.4,1.4,0,0,1-.579.458,2.9,2.9,0,0,0-.969.6s-1.364.835-1.8.371a34.8,34.8,0,0,0-3.378-2.206l-.484-.292-.242.263-1.561,1.722Z" transform="translate(-177.138 -402.318)" fill="#fff"/>
            <path id="Caminho_1353" data-name="Caminho 1353" d="M323.17,477.4l2.011,1.411s.018-.284.068-.669a4.07,4.07,0,0,1-1.772-1.645C323.3,477,323.17,477.4,323.17,477.4Z" transform="translate(-245.463 -380.805)" opacity="0.1"/>
            <path id="Caminho_1354" data-name="Caminho 1354" d="M292.764,482.7l.44-.116a3.663,3.663,0,0,0,1.132.856,6.207,6.207,0,0,1,1.3.671l1.016.808s.763.116.526-.416.419-1.2.419-1.2a19.158,19.158,0,0,0,1.293-3.212,16.52,16.52,0,0,1,1.053-2.9s1.343,2.612,3.794,1.78a30.778,30.778,0,0,0-1.827,5,18.96,18.96,0,0,1-1.227,3.77,2.6,2.6,0,0,1-2.82,1.94s-3.283.611-4,0a5.686,5.686,0,0,0-1.711-1.161,1.342,1.342,0,0,1-.648-.463V485.3Z" transform="translate(-222.131 -381.313)" fill="#19d"/>
            <path id="Caminho_1355" data-name="Caminho 1355" d="M311,508s-.577,2.151-.208,2.383Z" transform="translate(-236.256 -404.012)" opacity="0.1"/>
            <path id="Caminho_1356" data-name="Caminho 1356" d="M238.84,557c3.075.1,9.854.221,10.157-.563a1.921,1.921,0,0,0,.105-.621l-10.049.527Z" transform="translate(-183.334 -439.243)" opacity="0.1"/>
            <path id="Caminho_1357" data-name="Caminho 1357" d="M236,630.062s.19.527.45,1.219c1.277-.079,2.967-.161,4.57-.171.569,0,1.124,0,1.648.018a12.418,12.418,0,0,1,2.7.3,7.108,7.108,0,0,0,2.4.311c.208-.79.353-1.374.353-1.374s-3.5-.292-5.613-.395l-.168-1.177Z" transform="translate(-181.242 -493.003)" opacity="0.1"/>
            <path id="Caminho_1358" data-name="Caminho 1358" d="M225.69,568.511l.392.832s.055.247.124.642a16.678,16.678,0,0,1,.295,3.588,27.463,27.463,0,0,0,.263,4.475s8.509-.716,11,0,3.725,0,3.725,0-.3-2.683.437-4.067c.505-.95.861-5.168.874-7.937a6.989,6.989,0,0,0-.226-2.446,73.1,73.1,0,0,1-2.68-6.868l-.5.026-1.316.071-7.524.4-1.182.061-.124.382Z" transform="translate(-173.646 -439.913)" fill="#d9d5d5"/>
            <path id="Caminho_1359" data-name="Caminho 1359" d="M211.268,581.735l-.068.74s3.725-1.214,3.538-2.706,0-1.316,0-1.316l-3,.263Z" transform="translate(-162.971 -455.912)" fill="#4c4981"/>
            <path id="Caminho_1360" data-name="Caminho 1360" d="M211.268,581.735l-.068.74s3.725-1.214,3.538-2.706,0-1.316,0-1.316l-3,.263Z" transform="translate(-162.971 -455.912)" opacity="0.1"/>
            <path id="Caminho_1361" data-name="Caminho 1361" d="M298.806,508.635a3.311,3.311,0,0,1-1.316.682.857.857,0,0,0,.387-.182c.263-.19.526-.395.777-.6a2.457,2.457,0,0,1,.721-.5,3.952,3.952,0,0,1-.569.595Z" transform="translate(-226.544 -404.042)" opacity="0.1"/>
            <path id="Caminho_1362" data-name="Caminho 1362" d="M301.207,511.414a1.684,1.684,0,0,0-.287.455,1.863,1.863,0,0,0-.082.592,1.843,1.843,0,0,0,.1.84l.605-1.44c.1-.245.208-.49.334-.724.053-.1.4-.527.358-.608C302.126,510.282,301.321,511.278,301.207,511.414Z" transform="translate(-229.003 -405.847)" opacity="0.1"/>
            <path id="Caminho_1363" data-name="Caminho 1363" d="M235.95,542.885a1.917,1.917,0,0,1-1.09-.505c.616.076,1.2.319,1.8.445a2.674,2.674,0,0,0,1.677-.155A4.111,4.111,0,0,1,235.95,542.885Z" transform="translate(-180.402 -429.341)" opacity="0.1"/>
            <path id="Caminho_1364" data-name="Caminho 1364" d="M245.55,523.11a.418.418,0,0,0,.313-.079q.692-.395,1.364-.827a8.331,8.331,0,0,0,1.337-.924A6.8,6.8,0,0,1,245.55,523.11Z" transform="translate(-188.278 -413.796)" opacity="0.1"/>
            <path id="Caminho_1365" data-name="Caminho 1365" d="M237,545.573a2.876,2.876,0,0,1-.721-.055.974.974,0,0,1-.592-.392.329.329,0,0,1,.25.042,4.273,4.273,0,0,0,2.322.276A3.318,3.318,0,0,1,237,545.573Z" transform="translate(-181.013 -431.358)" opacity="0.1"/>
            <path id="Caminho_1366" data-name="Caminho 1366" d="M257.32,587.07a7.448,7.448,0,0,0,1.477.29,8.687,8.687,0,0,0,1.169-.021l1.9-.121.948-.06c.111,0,.569,0,.342-.224-.113-.111-.745-.04-.908-.045-.313,0-.629-.016-.942-.018q-.94,0-1.88.039C258.718,586.941,258.026,587,257.32,587.07Z" transform="translate(-196.949 -462.119)" opacity="0.1"/>
            <path id="Caminho_1367" data-name="Caminho 1367" d="M265.64,590.7a7.9,7.9,0,0,1,1.066.219,6.87,6.87,0,0,0,1.116.045,6.258,6.258,0,0,0,2.151-.44C268.528,590.594,267.083,590.646,265.64,590.7Z" transform="translate(-203.079 -464.808)" opacity="0.1"/>
            <path id="Caminho_1368" data-name="Caminho 1368" d="M272.984,594.838a3.276,3.276,0,0,0-.411.113,4.8,4.8,0,0,1-2.454-.171,1.472,1.472,0,0,0,.932.527,4.36,4.36,0,0,0,1.816.066c.19-.037.663-.105.761-.3C273.774,594.754,273.169,594.8,272.984,594.838Z" transform="translate(-206.379 -467.946)" opacity="0.1"/>
            <path id="Caminho_1369" data-name="Caminho 1369" d="M245.117,599.437a6.664,6.664,0,0,0-.708.184,6.02,6.02,0,0,1-2.733-.289,12.7,12.7,0,0,0-3.307-.308,2.926,2.926,0,0,1,.711.234c.263.076.513.147.771.213a15.531,15.531,0,0,0,1.545.3,15.973,15.973,0,0,0,3.159.14,4.667,4.667,0,0,0,1.74-.224A1.932,1.932,0,0,0,245.117,599.437Z" transform="translate(-182.988 -471.066)" opacity="0.1"/>
            <path id="Caminho_1370" data-name="Caminho 1370" d="M261.728,489.294a12.135,12.135,0,0,0,.3,3.1c.108.3.279.861.463,1.485.205.7.424,1.472.595,2.075l.284,1.019s.79,6.36.982,9.391v.158a3.353,3.353,0,0,0,.058.526c.448,3.009,3.046,7.653,3.917,8.024a2.634,2.634,0,0,1,.735.5,6.99,6.99,0,0,0-.226-2.446,73.094,73.094,0,0,1-2.68-6.868l-.5.026a2.314,2.314,0,0,0,.024-.263,12.112,12.112,0,0,0-.527-3.054s-.324-3.7-.324-3.862.276-2.751.276-2.751l-.553-2.082-1.066-.745c-.132-1.606-.448-3.554-1.2-4.086a2.985,2.985,0,0,1-.882-1.114c-.147.021.124-.111.124-.111Z" transform="translate(-199.928 -389.439)" opacity="0.1"/>
            <path id="Caminho_1371" data-name="Caminho 1371" d="M261.2,487.564a1.385,1.385,0,0,1,1.171.132,2.956,2.956,0,0,0,1.843.279,24.745,24.745,0,0,1,3.4-.347c.24.092.692-.324.992.232s.44.856.74.993.832.579.763.671.763.648.763.648l-1.688,5.478s1.087,6.937,1.619,7.54,5.247,8.393,3.559,9.78a33.9,33.9,0,0,1-4.231,2.843c-.184.092-.856-1.156-1.78-1.551s-3.783-5.594-3.97-8.553-1-9.549-1-9.549-.992-3.607-1.34-4.578a12.136,12.136,0,0,1-.3-3.1Z" transform="translate(-199.808 -388.901)" fill="#19d"/>
            <path id="Caminho_1372" data-name="Caminho 1372" d="M225.69,522.627l.392.832s.055.247.124.642a.361.361,0,0,0,.2-.087c.579-.463,3.978-3.949,4.138-7.053.118-2.285.063-4.254.026-5.131,0-.276-.024-.442-.024-.479h0s-2.633-3.191-2.335-4.323.982-7.2.982-7.2l.1-.79.174-1.34.421-3.249-.434.1a1.279,1.279,0,0,1-.263.263l-.45,2.856-1.561,1.722-.263,10.472.716,1.874s.587.026,1.5.053h.09Z" transform="translate(-173.646 -394.029)" opacity="0.1"/>
            <path id="Caminho_1373" data-name="Caminho 1373" d="M215.069,504.928s.65-.263.7,0,.163.808.163.808-.108,1.353.369,1.88.577,2.767.577,2.767.79,2.219.408,2.914a19.329,19.329,0,0,0-.55,3.025c-.132.943-.263,1.985-.379,2.933-.208,1.724-.366,3.159-.366,3.159s.416,1.527,1,1.053,3.978-3.949,4.138-7.053c.113-2.175.068-4.067.029-5-.016-.395-.029-.619-.029-.619s-2.633-3.191-2.335-4.323.985-7.184.985-7.184l.121-.937.129-1.006.029-.221.419-3.222h0a14.617,14.617,0,0,0-3.009.945,10.431,10.431,0,0,1-2.451.832,1.843,1.843,0,0,0-1.316,1.348,2.059,2.059,0,0,0-.053.2c-.276,1.343-.184,1.5-.371,1.735S215.069,504.928,215.069,504.928Z" transform="translate(-164.483 -393.624)" fill="#19d"/>
            <path id="Caminho_1374" data-name="Caminho 1374" d="M225,582.025c.95-.187,2.348-.624,2.317-1.58-.029-.9-1.116-1.229-1.938-1.345C225.24,580.035,225.108,581.077,225,582.025Z" transform="translate(-173.138 -456.394)" opacity="0.1"/>
            <path id="Caminho_1375" data-name="Caminho 1375" d="M213.814,580.955c.037.082.195.153.4.213a10.788,10.788,0,0,0,1.54.25s3.214-.263,3.159-1.711c-.032-1.053-1.485-1.316-2.3-1.387-.321-.026-.542-.021-.542-.021S213.674,580.655,213.814,580.955Z" transform="translate(-164.892 -455.804)" fill="#ae6e79"/>
            <path id="Caminho_1376" data-name="Caminho 1376" d="M213.814,580.955c.037.082.195.153.4.213.84-1.121,2.009-2.559,2.58-2.685,0,0-.066-.066-.174-.163-.321-.026-.542-.021-.542-.021S213.674,580.655,213.814,580.955Z" transform="translate(-164.892 -455.804)" opacity="0.1"/>
            <path id="Caminho_1377" data-name="Caminho 1377" d="M198.073,512.6l-.948.139a16.421,16.421,0,0,1-1.135,1.732,1.887,1.887,0,0,0-.416,1.111,14.088,14.088,0,0,1-1.827,2.288c-.44.229-1.108,1.8-1.108,1.8s-1.087.719-1.087,1.527a13.427,13.427,0,0,1-.208,2.011,5.7,5.7,0,0,0,.624,2.267,7.867,7.867,0,0,1,.9,2.59,12.518,12.518,0,0,0,1.664,2.219,9.172,9.172,0,0,1,.808,1.364l1.227,2.311s2.588-3.815,3.538-4.023a7.145,7.145,0,0,0-1.6-1.2c-.542-.184-1.053-1.711-1.053-2.056a2.726,2.726,0,0,0-.971-1.711c-.484-.208-.74-.416-.527-.74s0-.948,0-.948a9.913,9.913,0,0,0,1.548-2.846,3.038,3.038,0,0,1,1.435-1.732l.716-1.759Z" transform="translate(-148.341 -407.401)" fill="#19d"/>
            <path id="Caminho_1378" data-name="Caminho 1378" d="M198.624,543.408a2.977,2.977,0,0,0-1.864-.708,2.282,2.282,0,0,1,1.219.477,2.7,2.7,0,0,1,.34.432c.111.155,1,1.293,1.145,1.114C199.674,544.456,198.8,543.569,198.624,543.408Z" transform="translate(-152.332 -429.577)" opacity="0.1"/>
            <path id="Caminho_1379" data-name="Caminho 1379" d="M208.44,530.908a.79.79,0,0,1-.661-.469,2.617,2.617,0,0,1-.205-.819,12.093,12.093,0,0,0-.287-1.406.918.918,0,0,1-.047-.292.836.836,0,0,1,.09-.282,1.886,1.886,0,0,1,.2-.421,2.559,2.559,0,0,1,.29.882c.087.316.168.629.242.948C208.1,529.208,208.417,530.908,208.44,530.908Z" transform="translate(-160.053 -418.172)" opacity="0.1"/>
            <path id="Caminho_1380" data-name="Caminho 1380" d="M214.91,463.151a1.981,1.981,0,0,0,.319.329c.371.3.879.553.927,1.027a1.145,1.145,0,0,0,.055.458c.121.205.421.19.656.147a1.127,1.127,0,0,0,.553-.2c.25-.213.263-.59.461-.856a1.163,1.163,0,0,1,.937-.419c.353-.013.706.066,1.053.084a2.917,2.917,0,0,0,.677-.047,2.2,2.2,0,0,0,.221-.045,2.9,2.9,0,0,0,.461-.158,1.925,1.925,0,0,0,.224-.105,3.017,3.017,0,0,0,.653-.453,1.624,1.624,0,0,0,.605-1.227,7.819,7.819,0,0,0-.2-.842,2.643,2.643,0,0,1,.99-2.172c.234-.232.484-.458.719-.7a3.48,3.48,0,0,0,.845-1.206,3.669,3.669,0,0,0,.153-1.506,9.89,9.89,0,0,1-.045-1.553c.174-1.843,1.743-3.246,3.312-4.012l.068-.037a5.039,5.039,0,1,0-6.776,7.371c.016.058.032.116.045.174a3.784,3.784,0,0,1-.147,2.817h0a14.611,14.611,0,0,0-3.009.945,10.426,10.426,0,0,1-2.451.832A1.843,1.843,0,0,0,214.91,463.151Z" transform="translate(-165.704 -359.75)" opacity="0.1"/>
            <path id="Caminho_1381" data-name="Caminho 1381" d="M227.161,442.059c-.105-.118-.263-.179-.366-.295-.329-.355,0-.935-.121-1.4a1.158,1.158,0,0,0-1.3-.692c-.534.055-1.032.3-1.566.361a6.814,6.814,0,0,1-2.435-.477,2.34,2.34,0,0,0-2.34.4c-.558.619-.527,1.672-1.211,2.119a8.007,8.007,0,0,1-1.066.384,2.249,2.249,0,0,0-.906.863,4.526,4.526,0,0,0-.682,2.9c.058.548.216,1.082.279,1.63a4.758,4.758,0,0,1-.111,1.7,1.8,1.8,0,0,1-1.029,1.361,1.743,1.743,0,0,0-.384.132c-.326.2-.282.684-.2,1.053l.345,1.543c-.324.247-.827.142-1.14.4a.953.953,0,0,0-.263.416,2.274,2.274,0,0,0,.677,2.5c.369.3.879.553.927,1.027a1.087,1.087,0,0,0,.055.455c.121.208.419.192.656.15a1.145,1.145,0,0,0,.55-.205c.263-.211.263-.59.461-.856a1.172,1.172,0,0,1,.937-.419c.355,0,.706.068,1.053.084a3.13,3.13,0,0,0,2.235-.806,1.622,1.622,0,0,0,.605-1.229,7.321,7.321,0,0,0-.2-.84,2.666,2.666,0,0,1,.99-2.174,5.942,5.942,0,0,0,1.566-1.9c.355-.964,0-2.038.105-3.059.174-1.843,1.743-3.246,3.314-4.015C226.972,442.978,227.567,442.523,227.161,442.059Z" transform="translate(-163.952 -353.488)" fill="#444053"/>
            <path id="Caminho_1382" data-name="Caminho 1382" d="M219.654,458.62c.263-.211.263-.59.461-.856a1.171,1.171,0,0,1,.937-.419c.355,0,.706.066,1.053.084a3.125,3.125,0,0,0,2.235-.808,1.625,1.625,0,0,0,.605-1.227,7.973,7.973,0,0,0-.2-.842,2.643,2.643,0,0,1,.99-2.172,5.82,5.82,0,0,0,1.564-1.9c.358-.961,0-2.035.108-3.056.174-1.843,1.743-3.249,3.312-4.015.369-.179.961-.637.555-1.1-.1-.118-.263-.179-.366-.295-.326-.355,0-.937-.121-1.4a.724.724,0,0,0-.118-.263,1,1,0,0,1,.853.674c.116.469-.208,1.053.121,1.4.105.116.263.176.366.295.405.463-.19.919-.555,1.1-1.58.766-3.141,2.175-3.314,4.015-.1,1.021.25,2.106-.105,3.056a5.813,5.813,0,0,1-1.566,1.9,2.653,2.653,0,0,0-.99,2.175,7.311,7.311,0,0,1,.2.84,1.616,1.616,0,0,1-.606,1.227,3.12,3.12,0,0,1-2.235.808c-.355-.018-.706-.095-1.053-.084a1.172,1.172,0,0,0-.937.419c-.19.263-.211.645-.461.856a1.145,1.145,0,0,1-.55.205c-.237.042-.527.058-.656-.15a.527.527,0,0,1-.053-.263A1.079,1.079,0,0,0,219.654,458.62Z" transform="translate(-168.81 -354.172)" opacity="0.1"/>
          </g>
        </g>
        <rect id="Retângulo_2156" data-name="Retângulo 2156" width="53.32" height="5.113" rx="2.556" transform="translate(736.553 303.392)" fill="#d9d5d5"/>
        <rect id="Retângulo_2166" data-name="Retângulo 2166" width="13.375" height="5.113" rx="2.556" transform="translate(804.15 303.392)" fill="#d9d5d5"/>
        <rect id="Retângulo_2170" data-name="Retângulo 2170" width="13.375" height="5.113" rx="2.556" transform="translate(831.648 303.392)" fill="#d9d5d5"/>
        <rect id="Retângulo_2174" data-name="Retângulo 2174" width="13.375" height="5.113" rx="2.556" transform="translate(856.854 303.392)" fill="#d9d5d5"/>
        <rect id="Retângulo_2158" data-name="Retângulo 2158" width="53.32" height="5.113" rx="2.556" transform="translate(736.553 335.472)" fill="#d9d5d5"/>
        <rect id="Retângulo_2165" data-name="Retângulo 2165" width="13.375" height="5.113" rx="2.556" transform="translate(804.15 335.472)" fill="#d9d5d5"/>
        <rect id="Retângulo_2169" data-name="Retângulo 2169" width="13.375" height="5.113" rx="2.556" transform="translate(831.648 335.472)" fill="#d9d5d5"/>
        <rect id="Retângulo_2173" data-name="Retângulo 2173" width="13.375" height="5.113" rx="2.556" transform="translate(856.854 335.472)" fill="#d9d5d5"/>
        <rect id="Retângulo_2160" data-name="Retângulo 2160" width="53.32" height="5.113" rx="2.556" transform="translate(736.553 367.553)" fill="#d9d5d5"/>
        <rect id="Retângulo_2164" data-name="Retângulo 2164" width="13.375" height="5.113" rx="2.556" transform="translate(804.15 367.553)" fill="#d9d5d5"/>
        <rect id="Retângulo_2168" data-name="Retângulo 2168" width="13.375" height="5.113" rx="2.556" transform="translate(831.648 367.553)" fill="#d9d5d5"/>
        <rect id="Retângulo_2172" data-name="Retângulo 2172" width="13.375" height="5.113" rx="2.556" transform="translate(856.854 367.553)" fill="#d9d5d5"/>
        <rect id="Retângulo_2162" data-name="Retângulo 2162" width="53.32" height="5.113" rx="2.556" transform="translate(736.553 399.633)" fill="#d9d5d5"/>
        <rect id="Retângulo_2167" data-name="Retângulo 2167" width="13.375" height="5.113" rx="2.556" transform="translate(804.15 399.633)" fill="#d9d5d5"/>
        <rect id="Retângulo_2171" data-name="Retângulo 2171" width="13.375" height="5.113" rx="2.556" transform="translate(831.648 399.633)" fill="#d9d5d5"/>
        <rect id="Retângulo_2175" data-name="Retângulo 2175" width="13.375" height="5.113" rx="2.556" transform="translate(856.854 399.633)" fill="#d9d5d5"/>
        <rect id="Retângulo_2157" data-name="Retângulo 2157" width="22.643" height="4.382" rx="2.191" transform="translate(736.553 312.157)" fill="#eaeaea"/>
        <rect id="Retângulo_2159" data-name="Retângulo 2159" width="22.643" height="4.382" rx="2.191" transform="translate(736.553 344.237)" fill="#eaeaea"/>
        <rect id="Retângulo_2161" data-name="Retângulo 2161" width="22.643" height="4.382" rx="2.191" transform="translate(736.553 376.318)" fill="#eaeaea"/>
        <rect id="Retângulo_2163" data-name="Retângulo 2163" width="22.643" height="4.382" rx="2.191" transform="translate(736.553 408.398)" fill="#eaeaea"/>
      </g>
    </g>
  </g>
</svg>
