<svg xmlns="http://www.w3.org/2000/svg" width="80" height="32.25" viewBox="0 0 80 32.25">
  <g id="Grupo_8455" data-name="Grupo 8455" transform="translate(16104 -296)">
    <g id="gol_fundo_escuro" transform="translate(-16112.001 277.125)">
      <path id="Caminho_1950" data-name="Caminho 1950" d="M55.078,18.875a16.456,16.456,0,0,0-3,.275c7.533,1.4,13.236,7.393,13.236,15.281,0,5.615-4.583,10.736-10.237,10.736a10.3,10.3,0,0,1-3-.443,10.151,10.151,0,0,1,0-19.448,10.314,10.314,0,0,0-3-.443c-5.654,0-10.237,5.121-10.237,10.736,0,7.888,5.7,13.883,13.237,15.281a16.456,16.456,0,0,0,3,.275,16.125,16.125,0,1,0,0-32.25" fill="#fcf6f0" opacity="0.25"/>
      <path id="Caminho_1951" data-name="Caminho 1951" d="M87.46,44.709H76.811a.539.539,0,0,1-.541-.537v-24.3a.539.539,0,0,0-.541-.538H70.818a.54.54,0,0,0-.542.538V49.588a1.079,1.079,0,0,0,1.083,1.075h16.1A.539.539,0,0,0,88,50.125V45.247a.539.539,0,0,0-.541-.538M52.079,19.15a16.464,16.464,0,0,0-3-.275A16.216,16.216,0,0,0,33.207,31.592a.539.539,0,0,1-.528.422h-7.9a.539.539,0,0,0-.541.537v4.878a.539.539,0,0,0,.541.538h6.941a.539.539,0,0,1,.541.537v2.421a1.071,1.071,0,0,1-.262.7,10.174,10.174,0,1,1-3.325-15.792.544.544,0,0,0,.7-.207L31.9,21.419a.537.537,0,0,0-.215-.752,16.119,16.119,0,1,0,4.574,25.172.546.546,0,0,1,.805,0,16.243,16.243,0,0,0,12.02,5.286,16.464,16.464,0,0,0,3-.275c-7.534-1.4-13.237-7.393-13.237-15.281,0-5.615,4.584-10.736,10.238-10.736a10.312,10.312,0,0,1,3,.443,10.151,10.151,0,0,1,0,19.448,10.312,10.312,0,0,0,3,.443c5.654,0,10.237-5.121,10.237-10.736,0-7.888-5.7-13.883-13.236-15.281" fill="#ff7020"/>
    </g>
  </g>
</svg>
